<?xml version="1.0" standalone="no"?>
<!DOCTYPE svg PUBLIC "-//W3C//DTD SVG 20010904//EN"
 "http://www.w3.org/TR/2001/REC-SVG-20010904/DTD/svg10.dtd">
<svg version="1.0" xmlns="http://www.w3.org/2000/svg"
 width="433.000000pt" height="433.000000pt" viewBox="0 0 433.000000 433.000000"
 preserveAspectRatio="xMidYMid meet">
<metadata>
Created by potrace 1.14, written by Peter Selinger 2001-2017
</metadata>
<g transform="translate(0.000000,433.000000) scale(0.100000,-0.100000)"
fill="#000000" stroke="none">
<path d="M1900 3913 c-52 -7 -116 -25 -167 -48 -59 -28 -176 -137 -218 -204
-56 -91 -64 -215 -25 -376 13 -56 12 -63 -7 -61 -22 1 -25 -33 -6 -88 7 -21
15 -48 17 -60 5 -29 53 -179 79 -246 17 -47 74 -133 120 -182 36 -40 48 -57
52 -78 2 -12 1 -20 -2 -16 -4 4 -12 -3 -19 -15 -6 -12 -39 -36 -72 -53 -34
-17 -146 -88 -249 -157 -103 -70 -211 -138 -240 -153 -29 -14 -61 -35 -72 -47
-23 -25 -89 -147 -94 -175 -2 -11 -9 -30 -14 -44 -6 -14 -20 -54 -33 -90 -12
-36 -26 -72 -30 -81 -7 -14 -15 -37 -36 -114 -9 -30 -37 -101 -43 -110 -5 -5
-14 -28 -21 -50 -7 -22 -31 -76 -53 -120 -36 -72 -41 -77 -49 -55 -5 14 -5 26
1 29 21 13 -2 240 -29 287 -10 18 -14 37 -10 44 14 22 -10 56 -54 77 -37 18
-45 29 -64 81 -12 32 -22 64 -22 70 0 6 -12 24 -26 41 -32 39 -62 40 -164 7
-41 -14 -87 -26 -102 -28 -15 -2 -30 -7 -34 -11 -4 -4 -15 -7 -25 -7 -33 0
-60 -33 -65 -80 -2 -25 -6 -56 -9 -70 -3 -14 -7 -35 -10 -47 -4 -24 -14 -173
-20 -288 -1 -38 -11 -108 -20 -154 -31 -148 -7 -297 53 -334 39 -24 81 -64
132 -127 25 -30 47 -57 50 -60 3 -3 20 -25 39 -50 64 -83 185 -209 241 -251
19 -14 72 -51 117 -82 l82 -57 109 0 109 0 41 36 c44 39 60 74 130 294 57 177
112 333 123 344 5 6 9 15 9 22 0 7 23 50 51 95 50 80 62 109 73 173 7 38 12
42 26 17 7 -14 12 -102 14 -240 2 -120 6 -223 9 -227 5 -9 10 -48 22 -159 10
-86 12 -101 26 -139 11 -31 10 -41 -14 -93 -14 -32 -25 -73 -25 -90 l1 -33
863 0 c475 0 865 3 867 7 2 5 -2 36 -9 71 -12 57 -17 98 -28 222 -3 25 -13
101 -23 170 -18 128 -21 225 -10 317 9 64 9 212 2 406 -4 96 -2 154 5 168 15
26 26 17 35 -27 3 -20 22 -60 42 -90 28 -42 49 -60 97 -84 72 -36 91 -51 131
-105 17 -22 75 -96 130 -165 56 -69 132 -172 170 -229 39 -57 81 -111 95 -121
42 -29 158 -63 197 -57 69 12 147 133 167 262 3 22 12 72 20 110 13 63 16 209
5 244 -2 8 11 25 31 38 23 16 35 33 37 51 1 15 4 49 6 77 3 27 0 63 -6 80 -13
41 -55 95 -73 95 -7 0 -14 4 -14 10 0 5 -11 12 -24 16 -26 6 -66 85 -87 168
-39 159 -59 182 -165 192 -86 7 -166 24 -190 39 -30 19 -64 -9 -68 -56 -2 -20
-5 -40 -8 -45 -3 -5 -8 -22 -12 -39 -7 -29 -8 -29 -23 -10 -8 11 -24 40 -36
65 -11 25 -23 47 -26 50 -3 3 -15 21 -25 40 -116 211 -241 328 -426 400 -30
12 -88 37 -128 56 -41 19 -78 34 -83 34 -5 0 -17 4 -27 10 -37 20 -195 66
-267 77 -16 2 -57 13 -90 25 -33 11 -76 22 -95 23 -19 2 -39 4 -43 4 -23 3
-34 69 -28 163 l6 97 35 23 c47 31 60 74 58 183 -2 113 -23 152 -58 110 -22
-26 -35 -11 -36 41 -2 138 -24 266 -55 326 -22 43 -86 94 -170 135 -104 51
-168 65 -249 56z m1916 -2281 c6 -4 18 -20 28 -37 10 -16 32 -41 49 -54 18
-13 47 -48 65 -78 33 -52 33 -55 17 -79 l-17 -26 -30 28 c-16 16 -37 43 -45
59 -9 17 -19 32 -22 35 -4 3 -12 16 -19 30 -16 34 -33 60 -54 82 -10 10 -18
25 -18 33 0 16 27 20 46 7z m-2983 -509 c20 -13 37 -25 37 -27 0 -25 -55 -227
-68 -249 -15 -26 -21 -28 -57 -24 -66 7 -331 149 -342 183 -4 11 12 17 190 68
87 25 124 40 142 60 26 28 36 27 98 -11z"/>
</g>
</svg>
